<svg id="visual" viewBox="0 0 900 600" width="900" height="600" xmlns="http://www.w3.org/2000/svg" xmlns:xlink="http://www.w3.org/1999/xlink" version="1.1"><rect x="0" y="0" width="900" height="600" fill="#535DA1"></rect><path d="M0 318L30 320.5C60 323 120 328 180 321.7C240 315.3 300 297.7 360 262.7C420 227.7 480 175.3 540 183.7C600 192 660 261 720 310.8C780 360.7 840 391.3 870 406.7L900 422L900 601L870 601C840 601 780 601 720 601C660 601 600 601 540 601C480 601 420 601 360 601C300 601 240 601 180 601C120 601 60 601 30 601L0 601Z" fill="#14B789" stroke-linecap="round" stroke-linejoin="miter"></path></svg>